<?xml version="1.0" standalone="no"?><!DOCTYPE svg PUBLIC "-//W3C//DTD SVG 1.1//EN" "http://www.w3.org/Graphics/SVG/1.1/DTD/svg11.dtd"><svg class="icon" width="200px" height="200.00px" viewBox="0 0 1024 1024" version="1.1" xmlns="http://www.w3.org/2000/svg"><path d="M510.78 537.23m-335.08 0a335.08 335.08 0 1 0 670.16 0 335.08 335.08 0 1 0-670.16 0Z" fill="#949BA6" /><path d="M510.78 537.23m-276.81 0a276.81 276.81 0 1 0 553.62 0 276.81 276.81 0 1 0-553.62 0Z" fill="#FFC600" /><path d="M397.51 650.5c11.29 11.29 29.87 11.29 41.16 0L572.7 516.47c11.29-11.29 11.29-29.87 0-41.16-11.29-11.29-29.87-11.29-41.16 0L397.51 609.35c-11.29 11.29-11.29 29.86 0 41.15z" fill="#949BA6" /><path d="M831.66 275.72c9.11-17.85 14.2-37.51 14.2-59 0-72.48-58.64-131.12-131.12-131.12-41.89 0-78.67 19.67-102.71 49.9l219.63 140.22z" fill="#717582" /><path d="M689.61 133.31l111.45 71.02c0.73 4.01 1.09 8.38 1.09 12.38 0 12.02-2.55 24.04-7.65 34.96l-145.32-92.51c10.93-12.37 25.13-21.11 40.43-25.85z" fill="#515560" /><path d="M189.9 275.72c-9.11-17.85-14.2-37.88-14.2-59 0-72.48 58.64-131.12 131.12-131.12 41.89 0 78.67 19.67 102.71 49.9L189.9 275.72z" fill="#717582" /><path d="M331.95 133.31L220.5 204.33c-0.73 4.01-1.09 8.01-1.09 12.38 0 12.02 2.55 24.04 7.65 34.96l145.32-92.51c-10.93-12.37-25.13-21.11-40.43-25.85z" fill="#515560" /><path d="M267.12 886.52c-2.55 4.37-4.01 9.47-4.01 14.93 0 16.03 13.11 29.14 29.14 29.14 10.56 0 20.03-5.83 25.13-14.2L364 838.44l-49.9-29.87-46.98 77.95z" fill="#717582" /><path d="M291.52 845.72c15.66 11.29 32.42 21.49 49.9 30.23L364 838.44l-49.9-29.87-22.58 37.15z" fill="#515560" /><path d="M754.44 886.52l-46.98-77.94-49.9 30.23 46.62 77.94c5.1 8.38 14.2 14.2 25.13 14.2 16.03 0 29.14-13.11 29.14-29.14 0-5.83-1.46-10.92-4.01-15.29z" fill="#717582" /><path d="M707.46 808.57l-49.9 30.23 22.58 37.51c17.48-8.74 34.24-18.94 49.9-30.23l-22.58-37.51z" fill="#515560" /><path d="M729.31 551.8c-8.01 0-14.57-6.56-14.57-14.57 0-35.33-9.47-70.29-26.95-100.89-4.01-6.92-1.46-16.03 5.46-20.03 6.92-4.01 16.03-1.46 20.03 5.46 20.03 35.33 30.96 75.03 30.96 115.46-0.36 8.01-6.92 14.57-14.93 14.57zM292.25 551.8c-8.01 0-14.57-6.56-14.57-14.57 0-128.57 104.53-233.1 233.1-233.1 40.43 0 80.13 10.56 115.46 30.96 6.92 4.01 9.47 12.75 5.46 20.03-4.01 6.92-13.11 9.47-20.03 5.46-30.96-17.85-65.92-26.95-100.89-26.95-112.54 0-203.96 91.42-203.96 203.96 0 7.65-6.56 14.21-14.57 14.21z" fill="#FFEEB2" /><path d="M665.21 382.8m-14.57 0a14.57 14.57 0 1 0 29.14 0 14.57 14.57 0 1 0-29.14 0Z" fill="#FFEEB2" /><path d="M739.87 579.48c-20.03 108.54-115.09 190.85-229.09 190.85s-209.06-82.31-229.09-190.85c-18.94-4.73-33.14-21.85-33.14-42.25h-14.57c0 152.97 123.83 276.81 276.81 276.81s276.8-123.84 276.8-276.81h-14.57c0 20.4-14.21 37.51-33.15 42.25z" fill="#FFA100" /><path d="M510.78 828.6c160.62 0 291.37-130.75 291.37-291.37S671.4 245.86 510.78 245.86 219.41 376.61 219.41 537.23 350.16 828.6 510.78 828.6z m0-553.61c144.59 0 262.24 117.64 262.24 262.24S655.38 799.47 510.78 799.47 248.54 681.82 248.54 537.23s117.65-262.24 262.24-262.24z" fill="#090418" /><path d="M469.62 516.47l-82.31 82.68c-8.38 8.38-12.75 19.3-12.75 30.96s4.37 22.58 12.75 30.96c8.38 8.38 19.3 12.75 30.96 12.75s22.58-4.37 30.96-12.75l82.31-82.31 30.96 30.96c2.91 2.91 6.56 4.37 10.2 4.37 3.64 0 7.28-1.46 10.2-4.37 5.83-5.83 5.83-14.93 0-20.76L551.94 558l30.96-30.96c8.38-8.38 12.75-19.3 12.75-30.96s-4.37-22.58-12.75-30.96c-16.39-16.39-45.16-16.39-61.92 0l-30.96 30.96-123.47-123.84c-5.83-5.83-14.93-5.83-20.76 0s-5.83 14.93 0 20.76l123.83 123.47z m72.12-30.59c2.91-2.91 6.56-4.37 10.2-4.37 4.01 0 7.65 1.46 10.2 4.37 2.91 2.91 4.37 6.56 4.37 10.2 0 4.01-1.46 7.65-4.37 10.2L428.1 640.3c-5.46 5.46-14.93 5.46-20.76 0-2.91-2.91-4.37-6.56-4.37-10.2 0-4.01 1.46-7.65 4.37-10.2l134.4-134.02z" fill="#090418" /><path d="M176.79 282.28c0.73 1.82 2.19 2.91 3.28 4.37 0.36 0.36 0.73 0.36 1.09 0.73 1.46 1.09 2.91 1.82 4.73 2.55 1.09 0.36 2.55 0.36 4.01 0.36 1.09 0 2.55-0.36 3.64-0.36 0.36 0 0.73-0.36 1.09-0.36 0.73-0.36 1.09-0.36 1.82-0.73l0.36-0.36c0.36 0 0.36-0.36 0.73-0.36l97.61-62.28 15.66 24.77c-90.33 63.01-149.69 167.9-149.69 286.64 0 111.45 52.45 210.52 133.67 274.62l-40.06 67.02c-4.01 6.92-6.19 14.57-6.19 22.58 0 24.04 19.67 43.71 43.71 43.71 15.3 0 29.5-8.01 37.51-21.12l40.06-66.65c42.98 18.94 90.69 29.87 140.95 29.87s97.97-10.56 140.95-29.87l40.06 66.65c8.01 13.11 22.22 21.12 37.51 21.12 24.04 0 43.71-19.67 43.71-43.71 0-8.01-2.19-15.66-6.19-22.58l-40.06-67.02c81.22-64.1 133.67-163.53 133.67-274.62 0-118.74-59.37-223.63-150.06-286.64l15.66-24.77 97.97 61.92c2.19 1.46 5.1 2.19 7.65 2.19 1.46 0 2.55 0 4.01-0.36 4.01-1.09 7.28-3.64 9.11-7.65 10.56-20.4 15.66-42.61 15.66-65.56 0-80.49-65.2-145.69-145.69-145.69-44.8 0-86.32 20.4-114 55.36-2.55 3.28-3.64 7.28-2.91 11.29 0.73 4.01 2.91 7.65 6.56 9.83L702 209.43l-15.66 24.77c-51.72-29.87-111.45-47.35-175.19-47.35s-123.47 17.12-175.19 47.35l-15.66-24.77 97.61-62.28c0.36 0 0.36-0.36 0.36-0.36 0.36 0 0.36-0.36 0.73-0.36 0.73-0.73 1.09-1.46 1.82-1.82l1.82-1.82c0.73-1.09 1.09-2.19 1.46-3.28 0-0.73 0.73-1.09 0.73-1.82v-0.36c0.36-1.46 0-2.91 0-4.37v-1.46c-0.36-1.82-1.46-3.64-2.55-5.46-29.14-34.6-70.66-55-115.46-55-80.49 0-145.69 65.2-145.69 145.69 0 22.93 5.1 44.79 15.66 65.55z m537.95-182.11c64.1 0 116.55 52.45 116.55 116.55 0 12.75-2.19 25.13-6.19 37.15L634.25 132.58c21.85-20.76 50.26-32.41 80.49-32.41zM304.63 909.1c-2.55 4.37-7.28 6.92-12.38 6.92-8.01 0-14.57-6.56-14.57-14.57 0-2.55 0.73-5.1 2.19-7.65l38.97-64.83c8.01 5.46 16.39 10.56 24.77 14.93l-38.98 65.2z m437.07-14.94c1.46 2.19 2.19 4.73 2.19 7.28 0 8.01-6.56 14.57-14.57 14.57-5.1 0-9.83-2.55-12.38-6.92l-38.97-64.83c8.38-4.73 16.75-9.83 24.77-14.93l38.96 64.83z m89.59-356.93c0 176.65-143.87 320.51-320.51 320.51S190.27 713.88 190.27 537.23s143.87-320.51 320.51-320.51 320.51 143.86 320.51 320.51zM306.82 100.17c4.01 0 8.38 0.36 12.38 0.73 1.46 0 2.55 0.36 4.01 0.73 2.91 0.36 5.46 0.73 8.01 1.46 1.46 0.36 2.91 0.73 4.37 1.09 2.55 0.73 5.1 1.46 7.28 2.19 1.46 0.36 2.91 1.09 4.37 1.46 2.55 1.09 4.73 1.82 7.28 2.91 1.46 0.73 2.55 1.09 4.01 1.82 2.55 1.46 5.46 2.91 8.01 4.37 0.73 0.36 1.82 1.09 2.55 1.46 3.28 2.19 6.56 4.73 9.83 7.28 0.73 0.73 1.46 1.09 1.82 1.82 2.19 1.82 4.01 3.64 5.83 5.46L196.46 253.87c-0.36-0.73-0.36-1.82-0.73-2.55a86.088 86.088 0 0 1-3.28-13.11c-0.36-1.46-0.73-2.91-0.73-4.73-0.73-5.46-1.46-10.93-1.46-16.75 0.01-64.11 52.46-116.56 116.56-116.56z" fill="#090418" /><path d="M904.14 537.23m-14.57 0a14.57 14.57 0 1 0 29.14 0 14.57 14.57 0 1 0-29.14 0Z" fill="#090418" /><path d="M872.81 647.59c-17.85 59.37-50.63 113.64-94.33 157.34-5.83 5.83-5.83 14.93 0 20.76 2.91 2.91 6.56 4.37 10.2 4.37 3.64 0 7.28-1.46 10.2-4.37 46.98-46.98 82.31-105.62 101.62-169.73 2.19-7.65-2.19-15.66-9.83-18.21-7.29-2.18-15.31 2.19-17.86 9.84z" fill="#090418" /><path d="M899.77 595.14m-14.57 0a14.57 14.57 0 1 0 29.14 0 14.57 14.57 0 1 0-29.14 0Z" fill="#090418" /><path d="M121.8 479.32m-14.57 0a14.57 14.57 0 1 0 29.14 0 14.57 14.57 0 1 0-29.14 0Z" fill="#090418" /><path d="M134.54 422.5m-14.57 0a14.57 14.57 0 1 0 29.14 0 14.57 14.57 0 1 0-29.14 0Z" fill="#090418" /><path d="M155.67 368.6m-14.57 0a14.57 14.57 0 1 0 29.14 0 14.57 14.57 0 1 0-29.14 0Z" fill="#090418" /></svg>