<?xml version="1.0" standalone="no"?><!DOCTYPE svg PUBLIC "-//W3C//DTD SVG 1.1//EN" "http://www.w3.org/Graphics/SVG/1.1/DTD/svg11.dtd"><svg class="icon" width="200px" height="200.00px" viewBox="0 0 1024 1024" version="1.1" xmlns="http://www.w3.org/2000/svg"><path d="M231.7 963.6l-34.8-34.8c-1.1-1.1-1.1-3 0-4.1l169.5-169.5c1.1-1.1 3-1.1 4.1 0l34.8 34.8c1.1 1.1 1.1 3 0 4.1L235.8 963.6c-1.1 1.1-3 1.1-4.1 0z" fill="#FE6A19" /><path d="M382.3 768c-10.2-6.3-23.7-5.1-32.6 3.7L213.5 908c-8.8 8.8-10.1 22.4-3.7 32.6 10.2 6.3 23.7 5.1 32.6-3.7l136.3-136.3c8.7-8.9 9.9-22.4 3.6-32.6z" fill="#FC8308" /><path d="M651.4 755.1l-34.8 34.8c-1.1 1.1-1.1 3 0 4.1l169.5 169.5c1.1 1.1 3 1.1 4.1 0l34.8-34.8c1.1-1.1 1.1-3 0-4.1L655.6 755.1c-1.2-1.1-3-1.1-4.2 0z" fill="#FE6A19" /><path d="M802.1 950.7c-10.2 6.3-23.7 5.1-32.6-3.7L633.3 810.7c-8.8-8.8-10.1-22.4-3.7-32.6 10.2-6.3 23.7-5.1 32.6 3.7l136.3 136.3c8.7 8.9 9.9 22.4 3.6 32.6z" fill="#FC8308" /><path d="M511 535.7m-350.7 0a350.7 350.7 0 1 0 701.4 0 350.7 350.7 0 1 0-701.4 0Z" fill="#FAB001" /><path d="M814.4 508.7c0-120.6-60.9-227-153.7-290.1C615.3 197.1 564.6 185 511 185c-193.7 0-350.7 157-350.7 350.7 0 120.6 60.9 227 153.7 290.1 45.4 21.5 96.2 33.5 149.7 33.5 193.7 0.1 350.7-156.9 350.7-350.6z" fill="#F9E48A" /><path d="M682.6 234.9C643.9 220.2 602 212 558.2 212c-193.7 0-350.7 157-350.7 350.7 0 110.8 51.5 209.5 131.8 273.8 38.7 14.7 80.6 22.9 124.4 22.9 193.7 0 350.7-157 350.7-350.7 0-110.8-51.5-209.5-131.8-273.8z" fill="#FECE0A" /><path d="M535.5 549.2h-49c-1.7 0-3-1.4-3-3V285.8c0-1.7 1.4-3 3-3h49c1.7 0 3 1.4 3 3v260.3c0 1.7-1.3 3.1-3 3.1z" fill="#FFFFFF" /><path d="M483.4 546.7v-49c0-1.7 1.4-3 3-3h174.3c1.7 0 3 1.4 3 3v49c0 1.7-1.4 3-3 3H486.5c-1.7 0-3.1-1.3-3.1-3z" fill="#FFFFFF" /><path d="M322.8 110.1c-50-50-131.1-50-181.2 0-50 50-50 131.1 0 181.2 8.2 8.2 21.4 8.2 29.6 0l151.5-151.5c8.3-8.2 8.3-21.5 0.1-29.7z" fill="#FE6A19" /><path d="M298.8 134.2c-45.9-45.9-118-49.6-168.3-11.1-38.4 50.2-34.8 122.3 11.1 168.3 8.2 8.2 21.4 8.2 29.6 0l127.5-127.5c8.2-8.3 8.2-21.6 0.1-29.7z" fill="#FC8308" /><path d="M699.2 110.1c50-50 131.1-50 181.2 0 50 50 50 131.1 0 181.2-8.2 8.2-21.4 8.2-29.6 0L699.2 139.8c-8.2-8.2-8.2-21.5 0-29.7z" fill="#FE6A19" /><path d="M723.2 134.2c45.9-45.9 118-49.6 168.3-11.1 38.4 50.2 34.8 122.3-11.1 168.3-8.2 8.2-21.4 8.2-29.6 0L723.2 163.8c-8.2-8.2-8.2-21.5 0-29.6z" fill="#FC8308" /></svg>