<svg xmlns:xlink="http://www.w3.org/1999/xlink" xmlns="http://www.w3.org/2000/svg" version="1.1" viewBox="0 0 1200 1200" height="1200px" width="1200px">
    <title>胡须怪</title>
    <g fill-rule="evenodd" fill="none" stroke-width="1" stroke="none" id="胡须怪">
        <rect height="1200" width="1199" y="0" x="0" fill="#FFFFFF" id="矩形"></rect>
        <g transform="translate(126.000000, 126.000000)" id="编组">
            <path transform="translate(360.000016, 359.999893) scale(-1, -1) translate(-360.000016, -359.999893)" fill="#E15961" id="形状结合" d="M719.999453,0 L719.999111,396.766401 C712.440872,404.618998 703.703643,406.662033 692.044081,402.488922 C675.715258,396.644622 602.900671,360.000089 578.54391,360.000089 C530.746715,360.000089 491.999432,413.725879 491.999432,479.999998 C491.999432,546.274118 530.746715,599.999907 578.54391,599.999907 C606.034153,599.999907 660.265824,574.755997 688.141008,564.297221 C707.670494,556.969753 715.660947,561.090294 719.999579,571.811471 L719.999579,571.811471 L719.999453,719.999786 L0,719.999786 L0,0 L719.999453,0 Z"></path>
            <path transform="translate(210.000130, 359.999893) scale(-1, -1) translate(-210.000130, -359.999893)" fill="#EFA63B" id="形状结合" d="M419.999681,0 L419.999339,396.766401 C412.4411,404.618998 403.70387,406.662033 392.044309,402.488922 C375.715486,396.644622 302.900899,360.000089 278.544138,360.000089 C230.746943,360.000089 191.99966,413.725879 191.99966,479.999998 C191.99966,546.274118 230.746943,599.999907 278.544138,599.999907 C306.03438,599.999907 360.266052,574.755997 388.141236,564.297221 C407.670722,556.969753 415.661175,561.090294 419.999807,571.811471 L419.999807,571.811471 L419.999681,719.999786 L3.63797604e-12,719.999786 L59.9999544,665.643453 L119.604938,594.893114 L171.714938,480 L191.999713,351.207669 L186.08892,292.536771 L171.714938,258.432495 L146.399749,0 L419.999681,0 Z"></path>
            <path transform="translate(833.999726, 479.999998) scale(-1, 1) rotate(-270.000000) translate(-833.999726, -479.999998)" fill="#E15961" id="形状结合" d="M925.811199,366.000178 C915.090023,370.33881 910.969481,378.329263 918.296949,397.858749 C928.755726,425.733933 953.999635,479.965604 953.999635,507.455847 C953.999635,555.253042 900.273846,594.000324 833.999726,594.000324 C767.725607,594.000324 713.999818,555.253042 713.999818,507.455847 C713.999818,483.099086 750.64435,410.284499 756.48865,393.955676 C760.66194,382.295614 758.618551,373.558134 750.765117,365.999672 Z"></path>
            <path fill="#E15961" id="形状结合" d="M451.811778,719.999854 C441.090602,724.338485 436.97006,732.328938 444.297529,751.858424 C454.756305,779.733608 480.000215,833.96528 480.000215,861.455523 C480.000215,909.252718 426.274425,948 360.000306,948 C293.726186,948 240.000397,909.252718 240.000397,861.455523 C240.000397,837.098762 276.644929,764.284175 282.48923,747.955352 C286.662519,736.295289 284.61913,727.55781 276.765697,719.999348 Z"></path>
            <ellipse ry="119.999964" rx="119.999909" cy="299.999911" cx="559.200154" fill="#FFFFFF" id="椭圆形"></ellipse>
            <ellipse ry="32.9999902" rx="32.9999749" cy="796.199763" cx="424.200257" opacity="0.43867856" fill="#FFFFFF" id="椭圆形"></ellipse>
            <ellipse ry="32.9999902" rx="32.9999749" cy="346.199897" cx="625.800104" fill="#000000" id="椭圆形"></ellipse>
            <path transform="translate(559.529573, 447.917167) scale(1, -1) translate(-559.529573, -447.917167)" stroke-linecap="round" stroke-width="6" stroke="#000000" id="路径-4" d="M485.129629,463.517163 C505.80561,442.510621 529.978726,432.111649 557.648977,432.320249 C585.319228,432.528848 610.746075,442.927819 633.929516,463.517163"></path>
            <path fill="#EFA63B" id="椭圆形" d="M679.200063,299.999911 C679.200063,233.72576 625.474274,179.999946 559.200154,179.999946 C492.926035,179.999946 439.200246,233.72576 439.200246,299.999911 C439.200246,312.655719 441.159425,324.853936 444.791039,336.307816 C460.176946,384.834 679.200063,366.274061 679.200063,299.999911 Z"></path>
            <line stroke-linecap="round" stroke-width="6" stroke="#000000" id="路径-2" y2="213.599936" x2="488.400208" y1="165.599951" x1="435.600248"></line>
            <line stroke-linecap="round" stroke-width="6" stroke="#D0F88D" id="路径-2" y2="703.199791" x2="710.40004" y1="666.599802" x1="684.600059"></line>
            <line stroke-linecap="round" stroke-width="6" stroke="#000000" id="路径-2" y2="707.054959" x2="651.040502" y1="667.799801" x1="651.000085"></line>
            <line stroke-linecap="round" stroke-width="6" stroke="#D0F88D" id="路径-2" y2="706.115245" x2="612.545745" y1="668.768883" x1="624.637812"></line>
            <line stroke-linecap="round" stroke-width="6" stroke="#000000" id="路径-2" y2="703.332987" x2="566.271362" y1="671.551141" x1="589.312256"></line>
            <line stroke-linecap="round" stroke-width="6" stroke="#000000" id="路径-2" y2="190.232932" x2="546.57908" y1="119.366976" x1="538.221254"></line>
            <line stroke-linecap="round" stroke-width="6" stroke="#000000" id="路径-2" y2="267.391819" x2="454.725625" y1="251.008026" x1="385.274895"></line>
            <path fill="#D0F88D" id="三角形" d="M293.41178,434.274089 L387.368204,621.256764 C391.534113,629.547338 388.190411,639.645311 379.899837,643.81122 C377.559306,644.987307 374.976194,645.599808 372.356793,645.599808 L184.443943,645.599808 C175.165559,645.599808 167.643943,638.078192 167.643943,628.799808 C167.643943,626.180407 168.256444,623.597294 169.432531,621.256764 L263.388956,434.274089 C267.554864,425.983515 277.652838,422.639813 285.943412,426.805722 C289.17102,428.427554 291.789948,431.046481 293.41178,434.274089 Z"></path>
            <path stroke-linecap="round" stroke-width="6" stroke="#000000" id="路径-16" d="M124.952269,34.7999896 C157.908775,45.9499428 188.225605,52.75256 215.902758,55.2078414 C307.694305,63.3508059 290.400499,84.1737726 290.400499,133.19996"></path>
            <path stroke-linecap="round" stroke-width="6" stroke="#000000" id="路径-16" d="M114.000493,0 C137.941683,14.9717344 163.613952,23.6146516 191.0173,25.9287517 C284.292779,33.8054826 345.600457,20.1790937 345.600457,69.5999793"></path>
            <path stroke-linecap="round" stroke-width="6" stroke="#000000" id="路径-16" d="M0.000719258612,84.9420418 C182.400581,69.9140956 273.600511,98.0000648 273.600511,169.19995"></path>
            <path stroke-linecap="round" stroke-width="6" stroke="#000000" id="路径-17" d="M0.000438268989,435.59987 C108.0559,479.999998 209.694005,369.507007 223.190065,404.39988 C236.686125,439.292752 221.620673,511.570125 53.5877263,574.145079 C-114.44522,636.720033 162.263423,745.457932 273.600511,695.52887"></path>
            <path stroke-linecap="round" stroke-width="6" stroke="#000000" id="路径-17" d="M0.000438268989,395.999882 C108.0559,440.40001 209.694005,329.907019 223.190065,364.799891 C236.686125,399.692764 221.620673,471.970137 53.5877263,534.545091 C-114.44522,597.120045 162.263423,705.857943 273.600511,655.928882"></path>
            <path stroke-width="6" stroke="#FFFFFF" id="路径-15" d="M420.00026,0 C323.800719,74.4202955 263.800765,165.025348 240.000397,271.815157 C204.299845,431.999871 261.222636,486.629285 277.200369,493.517154 C293.178101,500.405023 372.030534,345.262664 324.000404,313.199907 C275.970273,281.13715 204.096809,279.655352 192.299995,379.199887 C184.435453,445.562911 212.735578,559.162877 277.200369,719.999786"></path>
            <path stroke-width="6" stroke="#EFA63B" id="三角形" d="M285.931106,459.916646 C289.283811,458.806478 293.06003,458.975324 296.465087,460.686322 C299.116337,462.018541 301.267599,464.169803 302.599818,466.821052 L302.599818,466.821052 L370.02492,601.003742 C371.735918,604.408799 371.904764,608.185019 370.794596,611.537724 C369.684428,614.890429 367.295246,617.819619 363.890189,619.530617 C361.967611,620.496688 359.845768,620.999814 357.694117,620.999814 L357.694117,620.999814 L222.843914,620.999814 C219.033149,620.999814 215.583149,619.455197 213.08584,616.957888 C210.588531,614.460579 209.043914,611.010579 209.043914,607.199814 C209.043914,605.048163 209.54704,602.926321 210.513111,601.003742 L210.513111,601.003742 L277.938213,466.821052 C279.649211,463.415995 282.578401,461.026813 285.931106,459.916646 Z"></path>
            <path stroke-width="7.2" stroke="#D0F88D" id="路径-18" d="M278.400368,720.000067 C367.424282,745.468775 417.813464,769.534543 429.567914,792.197371 C447.199589,826.191613 416.692894,831.650011 407.209928,833.999893 C397.726962,836.349774 388.567366,826.191613 384.9376,803.256775 C381.307835,780.321936 402.459844,749.352796 411.76991,736.903337 C417.976621,728.603698 429.786514,722.969274 447.199589,720.000067"></path>
        </g>
    </g>
</svg>